# xmcd
#
# Track frame offsets:
#	150
#	18025
#	39720
#	59255
#	75825
#	97390
#	112210
#	127222
#	153470
#	168930
#
# Disc length: 2579 seconds
#
# Revision: 1
# Processed by: cddbd v1.5PL3 Copyright (c) Steve Scherf et al.
# Submitted via: CDex 1.50Beta5
#
DISCID=800a110a
DTITLE=STRAY PIG VANGUARD - トラッシュNo.1
DYEAR=1900
DGENRE=Rock
TTITLE0=Singing alone
TTITLE1=ロンリ−ウルフ
TTITLE2=幸運の女神
TTITLE3=ボクの理由
TTITLE4=ジャンクフ−ド
TTITLE5=トリックスタ−
TTITLE6=トラッシュNo.1
TTITLE7=透明。
TTITLE8=意味のない世界
TTITLE9=風見鶏
EXTD=
EXTT0=
EXTT1=
EXTT2=
EXTT3=
EXTT4=
EXTT5=
EXTT6=
EXTT7=
EXTT8=
EXTT9=
PLAYORDER=
